<svg width="467" height="758" viewBox="0 0 467 758" fill="none" xmlns="http://www.w3.org/2000/svg">
<g clip-path="url(#clip0_48_41)">
<path d="M445.552 511.159L440 732.183L438.237 757.339H363.821L361.141 708.859L339.386 524.1L445.552 511.159Z" fill="#ED9DA0"/>
<path d="M286.865 164.7C288.674 159.118 296.706 157.481 301.516 160.843C306.326 164.205 307.966 170.803 307.033 176.596C306.1 182.389 303.059 187.596 300.076 192.649C277.786 230.4 248.5 337.163 226.205 374.921C232.866 379.253 240.515 381.83 248.439 382.414C256.364 382.998 264.308 381.569 271.532 378.26C275.356 384.863 280.97 390.251 287.724 393.802C294.479 397.353 302.099 398.923 309.707 398.329C317.315 397.736 324.6 395.005 330.723 390.449C336.845 385.894 341.555 379.701 344.31 372.585L333.346 397.862C342.547 394.772 350.906 389.592 357.768 382.728C364.63 375.863 369.807 367.502 372.894 358.3L360.887 395.232C386.033 379.621 405 279.864 396.4 248.957C396.245 248.412 396.271 247.831 396.472 247.302C396.674 246.772 397.041 246.321 397.519 246.017L397.553 245.995C397.848 245.809 398.104 245.567 398.307 245.284C411.944 226.155 406.673 198.996 395.164 178.438C383.564 157.726 366.503 140.302 356.298 118.871C342.747 90.42 341.463 55.461 320.03 32.359C306.43 17.7 286.453 10.259 266.579 8.05101C246.705 5.84301 226.645 8.37601 206.81 10.905L208.183 7.71501C191.113 -4.73699 166.283 -0.98499 148.817 10.904C131.351 22.793 119.571 41.16 108.277 59.017L77.24 108.091C67.107 124.113 27.778 194.613 24.128 213.216C20.478 231.819 24.956 253.269 40 264.8L45.716 235.093L43.916 236.649C56.692 283.119 56.622 351.872 14.876 375.955C24.0823 378.538 33.7913 378.758 43.105 376.593C52.4187 374.429 61.0361 369.951 68.16 363.573L41.437 393.461C55.9761 393.174 70.0803 388.45 81.86 379.923L61.409 404.174L116.031 376.137L104.669 404.937L172.969 392.115" fill="#090814"/>
<path d="M120.125 698.862L107.534 757.172H363.351L354.142 726.241L120.125 698.862Z" fill="#090814"/>
<path d="M35.1587 654.991L0.0397326 698.254C0.0397326 698.254 -2.60027 757.173 35.1587 757.173C72.9177 757.173 128.759 646.764 128.759 646.764L89.4847 547.422L26.1757 531.872L35.1587 654.991Z" fill="#ED9DA0"/>
<path d="M338.97 192.128C340.019 169.495 334.776 147.015 323.821 127.182C312.866 107.35 296.629 90.9415 276.913 79.7792C257.196 68.617 234.772 63.1376 212.13 63.9495C189.488 64.7614 167.513 71.8328 148.647 84.3785C129.781 96.9243 114.761 114.453 105.254 135.02C95.7484 155.586 92.1283 178.384 94.7962 200.883C97.464 223.383 106.315 244.702 120.368 262.475C134.42 280.248 153.123 293.778 174.4 301.564L190.779 459.1L316.135 364.162C316.135 364.162 291.613 329.743 279.377 291.651C296.763 281.281 311.307 266.762 321.707 249.393C332.107 232.024 338.038 212.348 338.97 192.125V192.128Z" fill="#ED9DA0"/>
<path d="M294.959 325.287C294.959 325.287 250.532 491.887 178.338 345.279L82.917 389.54C82.917 389.54 89.581 640.552 109.573 676.094C109.573 676.094 88.473 709.414 114.016 716.078C139.559 722.742 126.233 711.635 139.561 722.742C152.889 733.849 179.545 714.967 179.545 714.967C179.545 714.967 314.375 766.393 354.145 726.241V559.906C354.145 559.906 421.677 498.386 466.103 542.813C466.103 542.813 457.218 401.758 407.237 370.659C357.256 339.56 294.962 325.287 294.962 325.287H294.959Z" fill="#13E6B5"/>
<path d="M103.465 401.2L82.9166 389.54C82.9166 389.54 3.49963 530.04 12.3896 550.032C21.2796 570.024 125.679 568.913 125.679 568.913L103.465 401.2Z" fill="#13E6B5"/>
<path d="M205.7 10.905C225.535 8.37602 245.6 5.84402 265.469 8.05102C285.338 10.258 305.32 17.7 318.92 32.359C340.354 55.459 341.637 90.42 355.187 118.872C365.393 140.303 382.458 157.727 394.053 178.439C405.562 198.997 410.833 226.156 397.196 245.285C396.992 245.568 396.736 245.81 396.442 245.996C395.955 246.302 395.583 246.759 395.382 247.297C395.181 247.836 395.162 248.425 395.33 248.975C404.147 277.13 391.891 310.641 366.776 326.235L378.783 289.3C372.783 307.7 353.63 387.853 335.235 393.859L346.2 368.584C343.445 375.701 338.735 381.893 332.613 386.448C326.49 391.004 319.205 393.735 311.597 394.328C303.989 394.922 296.368 393.352 289.614 389.801C282.859 386.25 277.246 380.863 273.422 374.259C266.197 377.568 258.254 378.997 250.329 378.413C242.405 377.829 234.756 375.252 228.095 370.92C250.385 333.162 276.676 230.404 298.966 192.646C301.949 187.593 304.989 182.387 305.923 176.593C306.857 170.799 305.216 164.202 300.406 160.84C295.596 157.478 287.564 159.115 285.755 164.697" fill="#090814"/>
<path d="M86.1858 349.4L63.5948 524.975C61.239 523.47 58.9766 521.823 56.8198 520.044L71.2578 347.889L86.1858 349.399V349.4Z" fill="#090814"/>
<path d="M287.184 164.239L170.563 70.939L86.7998 212.921V123.338L183.887 29.848L261.634 37.623L287.184 164.239Z" fill="#090814"/>
<path d="M441.66 606.752L179.018 724.019C174.734 725.927 169.869 726.057 165.49 724.381C161.111 722.705 157.576 719.361 155.661 715.081L21.0666 413.633C19.1583 409.35 19.0272 404.486 20.7019 400.106C22.3767 395.727 25.7206 392.191 29.9996 390.275L292.647 273.008C296.929 271.102 301.793 270.972 306.171 272.648C310.55 274.323 314.084 277.667 316 281.946L450.6 583.4C452.507 587.683 452.637 592.548 450.962 596.927C449.286 601.306 445.941 604.842 441.662 606.757L441.66 606.752Z" fill="#D6D6E3"/>
<path d="M429.561 600.389L185.73 699.065C181.698 700.86 177.119 700.982 172.998 699.405C168.877 697.828 165.549 694.68 163.746 690.653L33.6915 418.622C31.8966 414.591 31.7743 410.012 33.3513 405.89C34.9283 401.768 38.0759 398.441 42.1035 396.637L289.303 286.263C293.335 284.468 297.914 284.346 302.035 285.924C306.157 287.501 309.484 290.648 311.288 294.676L437.974 578.406C439.768 582.437 439.89 587.016 438.313 591.137C436.736 595.259 433.589 598.585 429.561 600.389Z" fill="white"/>
<path d="M83.4625 482.9L72.9406 693.216L0.0395508 698.254L25.5905 480.13C15.5065 469.37 9.47355 453.323 10.3196 435.665C11.7996 404.765 33.7276 380.715 59.2976 381.94C84.8675 383.165 104.4 409.2 102.915 440.1C102.069 457.758 94.5285 473.155 83.4625 482.9Z" fill="#ED9DA0"/>
<path d="M334.07 600.76L351.221 598.654L354.755 627.438C354.755 627.438 349.714 619.522 345.426 620.049C341.138 620.575 337.604 629.544 337.604 629.544L334.07 600.76Z" fill="#090814"/>
<path d="M353.924 598.17L366.966 586.833L385.992 608.719C385.992 608.719 379.205 607.331 375.945 610.165C372.685 612.999 372.95 620.057 372.95 620.057L353.924 598.17Z" fill="#090814"/>
<path d="M285.15 422.984L148.05 484.034C145.868 485.005 143.39 485.07 141.161 484.214C138.931 483.359 137.133 481.652 136.161 479.471C135.19 477.289 135.125 474.811 135.98 472.581C136.836 470.351 138.542 468.553 140.724 467.582L277.824 406.532C280.006 405.56 282.484 405.495 284.714 406.351C286.943 407.207 288.742 408.913 289.713 411.095C290.685 413.276 290.75 415.755 289.894 417.984C289.038 420.214 287.332 422.012 285.15 422.984Z" fill="#090814"/>
<path d="M161.321 432.671L131.159 446.102C128.978 447.074 126.5 447.139 124.27 446.283C122.04 445.428 120.242 443.721 119.27 441.539C118.299 439.358 118.234 436.88 119.09 434.65C119.945 432.42 121.652 430.622 123.833 429.65L153.995 416.219C156.177 415.248 158.655 415.183 160.885 416.039C163.115 416.894 164.913 418.601 165.884 420.782C166.856 422.964 166.921 425.442 166.065 427.672C165.209 429.902 163.503 431.7 161.321 432.671Z" fill="#13E6B5"/>
<path d="M302.041 460.915L164.941 521.965C162.759 522.936 160.281 523.001 158.051 522.145C155.822 521.29 154.023 519.583 153.052 517.402C152.08 515.22 152.015 512.742 152.871 510.512C153.727 508.282 155.433 506.484 157.615 505.513L294.715 444.463C296.896 443.491 299.375 443.426 301.604 444.282C303.834 445.137 305.632 446.844 306.604 449.026C307.575 451.207 307.64 453.685 306.784 455.915C305.929 458.145 304.222 459.943 302.041 460.915Z" fill="#090814"/>
<path d="M318.931 498.846L181.831 559.896C179.65 560.867 177.171 560.932 174.942 560.076C172.712 559.221 170.914 557.514 169.942 555.333C168.971 553.151 168.906 550.673 169.762 548.443C170.617 546.213 172.324 544.415 174.505 543.444L311.605 482.394C313.787 481.422 316.265 481.357 318.495 482.213C320.724 483.068 322.523 484.775 323.494 486.957C324.466 489.138 324.531 491.616 323.675 493.846C322.819 496.076 321.113 497.874 318.931 498.846Z" fill="#090814"/>
<path d="M322.829 538.175C329.303 535.292 336.486 534.394 343.47 535.594C350.454 536.793 356.925 540.037 362.066 544.915C367.207 549.793 370.785 556.085 372.35 562.997C373.914 569.908 373.394 577.129 370.855 583.745C368.315 590.36 363.871 596.075 358.085 600.165C352.298 604.255 345.428 606.538 338.344 606.724C331.26 606.909 324.28 604.991 318.286 601.209C312.293 597.428 307.555 591.955 304.673 585.481C300.807 576.8 300.548 566.939 303.953 558.068C307.358 549.196 314.148 542.04 322.829 538.175Z" fill="#13E6B5"/>
<path d="M340.889 590.023C340.324 590.275 339.708 590.391 339.09 590.364C338.472 590.336 337.869 590.164 337.328 589.863L323.096 581.933C322.173 581.418 321.492 580.558 321.203 579.541C320.914 578.524 321.041 577.434 321.555 576.511C322.07 575.588 322.93 574.907 323.947 574.618C324.963 574.328 326.053 574.455 326.977 574.97L336.288 580.157L341.27 550.97C341.35 550.447 341.534 549.945 341.81 549.494C342.086 549.042 342.449 548.651 342.878 548.341C343.308 548.032 343.794 547.811 344.309 547.691C344.825 547.572 345.359 547.556 345.88 547.645C346.402 547.734 346.9 547.926 347.347 548.21C347.794 548.493 348.179 548.863 348.482 549.297C348.784 549.732 348.996 550.222 349.107 550.739C349.218 551.256 349.225 551.791 349.127 552.311L343.196 587.052C343.089 587.68 342.833 588.272 342.45 588.781C342.067 589.289 341.567 589.699 340.993 589.975L340.889 590.023Z" fill="white"/>
</g>
<defs>
<clipPath id="clip0_48_41">
<rect width="466.1" height="757.339" fill="white"/>
</clipPath>
</defs>
</svg>
