<svg xmlns="http://www.w3.org/2000/svg" width="32" height="32" viewBox="0 0 32 32" fill="none">
  <path d="M0.804724 14.8493L11.1031 11.1006L14.8493 0.804724C14.9352 0.568863 15.0916 0.365134 15.2972 0.221175C15.5028 0.0772172 15.7478 0 15.9988 0C16.2498 0 16.4947 0.0772172 16.7003 0.221175C16.906 0.365134 17.0623 0.568863 17.1482 0.804724L20.8969 11.1031L31.1953 14.8493C31.4311 14.9352 31.6349 15.0916 31.7788 15.2972C31.9228 15.5028 32 15.7478 32 15.9988C32 16.2498 31.9228 16.4947 31.7788 16.7003C31.6349 16.906 31.4311 17.0623 31.1953 17.1482L20.8944 20.8969L17.1482 31.1953C17.0623 31.4311 16.906 31.6349 16.7003 31.7788C16.4947 31.9228 16.2498 32 15.9988 32C15.7478 32 15.5028 31.9228 15.2972 31.7788C15.0916 31.6349 14.9352 31.4311 14.8493 31.1953L11.1006 20.8944L0.804724 17.1482C0.568863 17.0623 0.365134 16.906 0.221175 16.7003C0.0772172 16.4947 0 16.2498 0 15.9988C0 15.7478 0.0772172 15.5028 0.221175 15.2972C0.365134 15.0916 0.568863 14.9352 0.804724 14.8493Z" fill="#0064E0"/>
</svg>