<svg width="655" height="655" viewBox="0 0 655 655" fill="none" xmlns="http://www.w3.org/2000/svg">
<path d="M16.4717 303.947L227.267 227.216L303.947 16.4717C305.705 11.6439 308.905 7.47383 313.114 4.52718C317.323 1.58054 322.337 0 327.475 0C332.613 0 337.626 1.58054 341.835 4.52718C346.044 7.47383 349.245 11.6439 351.003 16.4717L427.733 227.267L638.528 303.947C643.356 305.705 647.526 308.905 650.473 313.114C653.419 317.323 655 322.337 655 327.475C655 332.613 653.419 337.626 650.473 341.835C647.526 346.044 643.356 349.245 638.528 351.003L427.683 427.733L351.003 638.528C349.245 643.356 346.044 647.526 341.835 650.473C337.626 653.419 332.613 655 327.475 655C322.337 655 317.323 653.419 313.114 650.473C308.905 647.526 305.705 643.356 303.947 638.528L227.216 427.683L16.4717 351.003C11.6439 349.245 7.47383 346.044 4.52718 341.835C1.58054 337.626 0 332.613 0 327.475C0 322.337 1.58054 317.323 4.52718 313.114C7.47383 308.905 11.6439 305.705 16.4717 303.947Z" fill="#13E6B5"/>
</svg>
