<svg xmlns="http://www.w3.org/2000/svg" width="138" height="24" viewBox="0 0 138 24" fill="none">
  <path d="M82.6372 -2.38419e-05H88.2483L94.1746 14.9012H94.4268L100.353 -2.38419e-05H105.964V22.1785H101.551V7.74298H101.372L95.8033 22.0703H92.7981L87.2291 7.68884H87.0504V22.1785H82.6372V-2.38419e-05Z" fill="#131D22"/>
  <path d="M64.5193 22.1785V-2.38419e-05H79.0199V3.86607H69.0691V9.1508H78.2738V13.0169H69.0691V18.3125H79.0619V22.1785H64.5193Z" fill="#131D22"/>
  <path d="M60.7604 -2.38419e-05V22.1785H56.8305L47.4682 8.21948H47.3106V22.1785H42.7607V-2.38419e-05H46.7537L56.0424 13.9482H56.2316V-2.38419e-05H60.7604Z" fill="#131D22"/>
  <path d="M24.6428 22.1786V-1.09673e-05H39.1434V3.86608H29.1926V9.15082H38.3974V13.0169H29.1926V18.3125H39.1854V22.1786H24.6428Z" fill="#131D22"/>
  <path d="M138 17.3235C138 18.3728 137.777 19.2714 137.33 20.0195C136.887 20.7644 136.282 21.335 135.515 21.7313C134.751 22.1275 133.885 22.3256 132.916 22.3256C131.947 22.3256 131.079 22.1275 130.312 21.7313C129.549 21.3319 128.944 20.7597 128.497 20.0148C128.054 19.2667 127.833 18.3696 127.833 17.3235C127.833 16.2743 128.054 15.3772 128.497 14.6323C128.944 13.8842 129.549 13.312 130.312 12.9158C131.079 12.5196 131.947 12.3214 132.916 12.3214C133.885 12.3214 134.751 12.5196 135.515 12.9158C136.282 13.312 136.887 13.8842 137.33 14.6323C137.777 15.3772 138 16.2743 138 17.3235ZM135.985 17.3235C135.985 16.5849 135.853 15.9621 135.59 15.4549C135.331 14.9445 134.971 14.5594 134.51 14.2995C134.049 14.0364 133.518 13.9048 132.916 13.9048C132.315 13.9048 131.784 14.0364 131.323 14.2995C130.862 14.5594 130.5 14.9445 130.237 15.4549C129.977 15.9621 129.848 16.5849 129.848 17.3235C129.848 18.0621 129.977 18.6866 130.237 19.1969C130.5 19.7041 130.862 20.0893 131.323 20.3524C131.784 20.6123 132.315 20.7423 132.916 20.7423C133.518 20.7423 134.049 20.6123 134.51 20.3524C134.971 20.0893 135.331 19.7041 135.59 19.1969C135.853 18.6866 135.985 18.0621 135.985 17.3235Z" fill="#0064E0"/>
  <path d="M118.783 22.1924V12.3352H122.411C123.154 12.3352 123.778 12.4668 124.282 12.7299C124.789 12.993 125.171 13.362 125.43 13.8369C125.691 14.3086 125.822 14.8589 125.822 15.4878C125.822 16.1199 125.69 16.6686 125.425 17.1339C125.164 17.5959 124.778 17.9537 124.268 18.2072C123.757 18.4575 123.131 18.5826 122.388 18.5826H119.804V17.1002H122.151C122.586 17.1002 122.942 17.0392 123.219 16.9173C123.496 16.7921 123.701 16.6108 123.833 16.3734C123.968 16.1328 124.036 15.8375 124.036 15.4878C124.036 15.1381 123.968 14.8396 123.833 14.5926C123.698 14.3423 123.491 14.153 123.214 14.0246C122.937 13.8931 122.58 13.8273 122.142 13.8273H120.536V22.1924H118.783ZM123.781 17.7259L126.176 22.1924H124.22L121.868 17.7259H123.781Z" fill="#0064E0"/>
  <path d="M108.926 22.1924V12.3352H112.737C113.517 12.3352 114.172 12.4764 114.702 12.7588C115.234 13.0412 115.636 13.4294 115.907 13.9236C116.182 14.4145 116.319 14.9728 116.319 15.5985C116.319 16.2306 116.182 16.7921 115.907 17.2831C115.633 17.774 115.227 18.1607 114.692 18.443C114.156 18.7222 113.496 18.8618 112.712 18.8618H110.186V17.3938H112.464C112.92 17.3938 113.294 17.3168 113.585 17.1627C113.876 17.0087 114.091 16.797 114.23 16.5274C114.372 16.2579 114.444 15.9483 114.444 15.5985C114.444 15.2488 114.372 14.9407 114.23 14.6744C114.091 14.4081 113.875 14.2011 113.58 14.0535C113.289 13.9027 112.914 13.8273 112.454 13.8273H110.767V22.1924H108.926Z" fill="#0064E0"/>
  <path d="M0.557738 11.0636L7.69534 8.27066L10.2918 0.599568C10.3513 0.423838 10.4597 0.272047 10.6022 0.164789C10.7447 0.0575315 10.9145 0 11.0884 0C11.2624 0 11.4322 0.0575315 11.5747 0.164789C11.7172 0.272047 11.8256 0.423838 11.8851 0.599568L14.4832 8.27249L21.6208 11.0636C21.7843 11.1276 21.9255 11.2441 22.0253 11.3973C22.1251 11.5505 22.1786 11.733 22.1786 11.9201C22.1786 12.1071 22.1251 12.2896 22.0253 12.4428C21.9255 12.596 21.7843 12.7125 21.6208 12.7765L14.4815 15.5695L11.8851 23.2424C11.8256 23.4181 11.7172 23.5699 11.5747 23.6772C11.4322 23.7844 11.2624 23.842 11.0884 23.842C10.9145 23.842 10.7447 23.7844 10.6022 23.6772C10.4597 23.5699 10.3513 23.4181 10.2918 23.2424L7.69364 15.5676L0.557738 12.7765C0.394268 12.7125 0.253067 12.596 0.153292 12.4428C0.0535177 12.2896 0 12.1071 0 11.9201C0 11.733 0.0535177 11.5505 0.153292 11.3973C0.253067 11.2441 0.394268 11.1276 0.557738 11.0636Z" fill="#0064E0"/>
</svg>