<svg width="484" height="107" viewBox="0 0 484 107" fill="none" xmlns="http://www.w3.org/2000/svg">
<path d="M1.99772 50.6434L27.5634 41.3374L36.8633 15.7778C37.0765 15.1923 37.4647 14.6865 37.9752 14.3292C38.4857 13.9718 39.0937 13.7801 39.7168 13.7801C40.34 13.7801 40.948 13.9718 41.4585 14.3292C41.969 14.6865 42.3572 15.1923 42.5704 15.7778L51.8764 41.3435L77.4421 50.6434C78.0276 50.8566 78.5334 51.2448 78.8907 51.7553C79.2481 52.2658 79.4398 52.8738 79.4398 53.497C79.4398 54.1201 79.2481 54.7281 78.8907 55.2386C78.5334 55.7491 78.0276 56.1373 77.4421 56.3505L51.8703 65.6565L42.5704 91.2222C42.3572 91.8077 41.969 92.3135 41.4585 92.6708C40.948 93.0282 40.34 93.2199 39.7168 93.2199C39.0937 93.2199 38.4857 93.0282 37.9752 92.6708C37.4647 92.3135 37.0765 91.8077 36.8633 91.2222L27.5573 65.6504L1.99772 56.3505C1.4122 56.1373 0.906442 55.7491 0.549066 55.2386C0.191691 54.7281 0 54.1201 0 53.497C0 52.8738 0.191691 52.2658 0.549066 51.7553C0.906442 51.2448 1.4122 50.8566 1.99772 50.6434Z" fill="#13E6B5"/>
<path d="M112.472 86.9414C107.64 86.9414 103.644 85.9372 100.485 83.929C97.3266 81.8998 95.1091 79.0338 93.833 75.3311C92.5779 71.6074 92.3687 67.2248 93.2054 62.1832C94.0213 57.2253 95.6844 52.8741 98.1947 49.1295C100.705 45.364 103.843 42.4353 107.608 40.3434C111.395 38.2305 115.579 37.1741 120.16 37.1741C123.131 37.1741 125.861 37.6552 128.35 38.6175C130.839 39.5589 132.942 41.0232 134.657 43.0106C136.373 44.9979 137.555 47.5292 138.203 50.6043C138.852 53.6586 138.82 57.2986 138.109 61.5243L137.576 65.0074H98.0378L99.2616 57.3509H127.879C128.256 55.1752 128.13 53.2402 127.503 51.5457C126.875 49.8303 125.829 48.481 124.365 47.4978C122.901 46.5146 121.07 46.023 118.874 46.023C116.635 46.023 114.543 46.5983 112.598 47.7488C110.673 48.8785 109.052 50.3428 107.734 52.1419C106.416 53.941 105.579 55.8342 105.224 57.8215L103.937 65.1643C103.477 68.1767 103.581 70.6347 104.251 72.5384C104.92 74.442 106.092 75.8436 107.765 76.7432C109.439 77.6427 111.552 78.0925 114.104 78.0925C115.777 78.0925 117.326 77.8623 118.748 77.4021C120.171 76.9419 121.436 76.2515 122.545 75.3311C123.675 74.3897 124.616 73.2392 125.369 71.8794L135.756 73.0718C134.605 75.875 132.921 78.3226 130.704 80.4145C128.486 82.4855 125.829 84.0963 122.733 85.2469C119.658 86.3765 116.238 86.9414 112.472 86.9414ZM159.792 57.7588L155.148 86H143.757L151.79 37.8016H162.679L161.298 45.9916H161.894C163.401 43.293 165.513 41.1488 168.233 39.5589C170.952 37.969 174.122 37.1741 177.741 37.1741C181.025 37.1741 183.787 37.8853 186.025 39.3078C188.263 40.7094 189.853 42.77 190.795 45.4895C191.736 48.1881 191.882 51.462 191.234 55.3112L186.088 86H174.728L179.529 57.0684C180.073 53.8678 179.665 51.3574 178.306 49.5374C176.967 47.6965 174.812 46.7761 171.842 46.7761C169.854 46.7761 168.024 47.2154 166.35 48.094C164.677 48.9517 163.265 50.1964 162.114 51.8281C160.984 53.4598 160.21 55.4367 159.792 57.7588ZM218.785 86.9414C213.952 86.9414 209.957 85.9372 206.798 83.929C203.639 81.8998 201.422 79.0338 200.146 75.3311C198.89 71.6074 198.681 67.2248 199.518 62.1832C200.334 57.2253 201.997 52.8741 204.507 49.1295C207.018 45.364 210.155 42.4353 213.921 40.3434C217.707 38.2305 221.891 37.1741 226.473 37.1741C229.443 37.1741 232.173 37.6552 234.663 38.6175C237.152 39.5589 239.254 41.0232 240.97 43.0106C242.685 44.9979 243.867 47.5292 244.516 50.6043C245.164 53.6586 245.133 57.2986 244.421 61.5243L243.888 65.0074H204.35L205.574 57.3509H234.192C234.568 55.1752 234.443 53.2402 233.815 51.5457C233.188 49.8303 232.142 48.481 230.677 47.4978C229.213 46.5146 227.383 46.023 225.186 46.023C222.948 46.023 220.856 46.5983 218.91 47.7488C216.986 48.8785 215.364 50.3428 214.046 52.1419C212.729 53.941 211.892 55.8342 211.536 57.8215L210.25 65.1643C209.789 68.1767 209.894 70.6347 210.563 72.5384C211.233 74.442 212.404 75.8436 214.078 76.7432C215.751 77.6427 217.864 78.0925 220.416 78.0925C222.09 78.0925 223.638 77.8623 225.061 77.4021C226.483 76.9419 227.749 76.2515 228.857 75.3311C229.987 74.3897 230.928 73.2392 231.682 71.8794L242.068 73.0718C240.917 75.875 239.233 78.3226 237.016 80.4145C234.799 82.4855 232.142 84.0963 229.046 85.2469C225.971 86.3765 222.55 86.9414 218.785 86.9414ZM250.07 86L258.103 37.8016H268.991L267.611 45.9916H268.207C269.671 43.2302 271.69 41.0755 274.263 39.5275C276.836 37.9585 279.733 37.1741 282.955 37.1741C286.198 37.1741 288.812 37.969 290.8 39.5589C292.808 41.1278 294.042 43.2721 294.503 45.9916H295.005C296.511 43.293 298.666 41.1488 301.469 39.5589C304.293 37.969 307.462 37.1741 310.977 37.1741C315.37 37.1741 318.738 38.5757 321.081 41.3789C323.424 44.1821 324.145 48.2718 323.246 53.6481L317.849 86H306.489L311.636 55.4053C312.096 52.4139 311.636 50.2278 310.255 48.8471C308.895 47.4455 307.065 46.7447 304.764 46.7447C302.023 46.7447 299.743 47.5919 297.923 49.2864C296.124 50.9809 295.015 53.1983 294.597 55.9388L289.545 86H278.405L283.614 54.9347C283.991 52.4452 283.551 50.4579 282.296 48.9726C281.062 47.4873 279.242 46.7447 276.836 46.7447C275.204 46.7447 273.646 47.1631 272.161 47.9999C270.675 48.8366 269.41 50.0081 268.364 51.5143C267.339 52.9996 266.669 54.7255 266.355 56.6919L261.46 86H250.07Z" fill="black"/>
<path d="M336.998 86.6903C335.073 86.6903 333.483 86.0209 332.228 84.6821C330.973 83.3432 330.387 81.7115 330.471 79.7869C330.555 77.9042 331.318 76.3038 332.762 74.9859C334.205 73.668 335.868 73.009 337.751 73.009C339.613 73.009 341.192 73.6785 342.489 75.0173C343.807 76.3561 344.403 77.946 344.278 79.7869C344.194 81.0839 343.797 82.2554 343.085 83.3014C342.395 84.3474 341.516 85.1737 340.449 85.7803C339.383 86.387 338.232 86.6903 336.998 86.6903ZM376.998 21.7355L366.329 86H354.97L365.639 21.7355H376.998ZM378.01 86L386.043 37.8016H397.403L389.37 86H378.01ZM393.386 30.8982C391.566 30.8982 390.06 30.2916 388.867 29.0782C387.675 27.8649 387.152 26.411 387.299 24.7166C387.445 23.0221 388.209 21.5682 389.589 20.3549C390.991 19.1415 392.591 18.5349 394.39 18.5349C396.21 18.5349 397.706 19.1415 398.877 20.3549C400.07 21.5682 400.593 23.0221 400.446 24.7166C400.321 26.411 399.557 27.8649 398.156 29.0782C396.775 30.2916 395.185 30.8982 393.386 30.8982ZM433.528 37.8016L432.053 46.5878H403.561L405.036 37.8016H433.528ZM404.094 86L412.912 33.2517C413.414 30.0092 414.512 27.3106 416.207 25.1559C417.922 23.0012 420.003 21.3904 422.451 20.3235C424.919 19.2566 427.545 18.7231 430.327 18.7231C432.315 18.7231 434.04 18.88 435.505 19.1938C436.969 19.5076 438.036 19.79 438.705 20.0411L435.034 28.8272C434.553 28.6808 433.967 28.5343 433.277 28.3879C432.607 28.2206 431.823 28.1369 430.923 28.1369C428.811 28.1369 427.231 28.6494 426.185 29.6745C425.139 30.6786 424.449 32.122 424.114 34.0048L415.485 86H404.094ZM453.846 86.9414C449.013 86.9414 445.018 85.9372 441.859 83.929C438.7 81.8998 436.483 79.0338 435.207 75.3311C433.951 71.6074 433.742 67.2248 434.579 62.1832C435.395 57.2253 437.058 52.8741 439.568 49.1295C442.079 45.364 445.217 42.4353 448.982 40.3434C452.768 38.2305 456.952 37.1741 461.534 37.1741C464.504 37.1741 467.234 37.6552 469.724 38.6175C472.213 39.5589 474.315 41.0232 476.031 43.0106C477.746 44.9979 478.928 47.5292 479.577 50.6043C480.225 53.6586 480.194 57.2986 479.483 61.5243L478.949 65.0074H439.411L440.635 57.3509H469.253C469.63 55.1752 469.504 53.2402 468.876 51.5457C468.249 49.8303 467.203 48.481 465.739 47.4978C464.274 46.5146 462.444 46.023 460.247 46.023C458.009 46.023 455.917 46.5983 453.971 47.7488C452.047 48.8785 450.425 50.3428 449.108 52.1419C447.79 53.941 446.953 55.8342 446.597 57.8215L445.311 65.1643C444.85 68.1767 444.955 70.6347 445.624 72.5384C446.294 74.442 447.465 75.8436 449.139 76.7432C450.813 77.6427 452.925 78.0925 455.478 78.0925C457.151 78.0925 458.699 77.8623 460.122 77.4021C461.544 76.9419 462.81 76.2515 463.919 75.3311C465.048 74.3897 465.99 73.2392 466.743 71.8794L477.129 73.0718C475.979 75.875 474.295 78.3226 472.077 80.4145C469.86 82.4855 467.203 84.0963 464.107 85.2469C461.032 86.3765 457.611 86.9414 453.846 86.9414Z" fill="#13E6B5"/>
</svg>
